<svg aria-roledescription="mindmap" role="graphics-document document" viewBox="5 5 863.1297607421875 489.1065368652344" style="max-width: 863.13px; background-color: white;" xmlns:xlink="http://www.w3.org/1999/xlink" xmlns="http://www.w3.org/2000/svg" width="100%" id="my-svg"><style>#my-svg{font-family:"trebuchet ms",verdana,arial,sans-serif;font-size:16px;fill:#333;}@keyframes edge-animation-frame{from{stroke-dashoffset:0;}}@keyframes dash{to{stroke-dashoffset:0;}}#my-svg .edge-animation-slow{stroke-dasharray:9,5!important;stroke-dashoffset:900;animation:dash 50s linear infinite;stroke-linecap:round;}#my-svg .edge-animation-fast{stroke-dasharray:9,5!important;stroke-dashoffset:900;animation:dash 20s linear infinite;stroke-linecap:round;}#my-svg .error-icon{fill:#552222;}#my-svg .error-text{fill:#552222;stroke:#552222;}#my-svg .edge-thickness-normal{stroke-width:1px;}#my-svg .edge-thickness-thick{stroke-width:3.5px;}#my-svg .edge-pattern-solid{stroke-dasharray:0;}#my-svg .edge-thickness-invisible{stroke-width:0;fill:none;}#my-svg .edge-pattern-dashed{stroke-dasharray:3;}#my-svg .edge-pattern-dotted{stroke-dasharray:2;}#my-svg .marker{fill:#333333;stroke:#333333;}#my-svg .marker.cross{stroke:#333333;}#my-svg svg{font-family:"trebuchet ms",verdana,arial,sans-serif;font-size:16px;}#my-svg p{margin:0;}#my-svg .edge{stroke-width:3;}#my-svg .section--1 rect,#my-svg .section--1 path,#my-svg .section--1 circle,#my-svg .section--1 polygon,#my-svg .section--1 path{fill:hsl(240, 100%, 76.2745098039%);}#my-svg .section--1 text{fill:#ffffff;}#my-svg .node-icon--1{font-size:40px;color:#ffffff;}#my-svg .section-edge--1{stroke:hsl(240, 100%, 76.2745098039%);}#my-svg .edge-depth--1{stroke-width:17;}#my-svg .section--1 line{stroke:hsl(60, 100%, 86.2745098039%);stroke-width:3;}#my-svg .disabled,#my-svg .disabled circle,#my-svg .disabled text{fill:lightgray;}#my-svg .disabled text{fill:#efefef;}#my-svg .section-0 rect,#my-svg .section-0 path,#my-svg .section-0 circle,#my-svg .section-0 polygon,#my-svg .section-0 path{fill:hsl(60, 100%, 73.5294117647%);}#my-svg .section-0 text{fill:black;}#my-svg .node-icon-0{font-size:40px;color:black;}#my-svg .section-edge-0{stroke:hsl(60, 100%, 73.5294117647%);}#my-svg .edge-depth-0{stroke-width:14;}#my-svg .section-0 line{stroke:hsl(240, 100%, 83.5294117647%);stroke-width:3;}#my-svg .disabled,#my-svg .disabled circle,#my-svg .disabled text{fill:lightgray;}#my-svg .disabled text{fill:#efefef;}#my-svg .section-1 rect,#my-svg .section-1 path,#my-svg .section-1 circle,#my-svg .section-1 polygon,#my-svg .section-1 path{fill:hsl(80, 100%, 76.2745098039%);}#my-svg .section-1 text{fill:black;}#my-svg .node-icon-1{font-size:40px;color:black;}#my-svg .section-edge-1{stroke:hsl(80, 100%, 76.2745098039%);}#my-svg .edge-depth-1{stroke-width:11;}#my-svg .section-1 line{stroke:hsl(260, 100%, 86.2745098039%);stroke-width:3;}#my-svg .disabled,#my-svg .disabled circle,#my-svg .disabled text{fill:lightgray;}#my-svg .disabled text{fill:#efefef;}#my-svg .section-2 rect,#my-svg .section-2 path,#my-svg .section-2 circle,#my-svg .section-2 polygon,#my-svg .section-2 path{fill:hsl(270, 100%, 76.2745098039%);}#my-svg .section-2 text{fill:#ffffff;}#my-svg .node-icon-2{font-size:40px;color:#ffffff;}#my-svg .section-edge-2{stroke:hsl(270, 100%, 76.2745098039%);}#my-svg .edge-depth-2{stroke-width:8;}#my-svg .section-2 line{stroke:hsl(90, 100%, 86.2745098039%);stroke-width:3;}#my-svg .disabled,#my-svg .disabled circle,#my-svg .disabled text{fill:lightgray;}#my-svg .disabled text{fill:#efefef;}#my-svg .section-3 rect,#my-svg .section-3 path,#my-svg .section-3 circle,#my-svg .section-3 polygon,#my-svg .section-3 path{fill:hsl(300, 100%, 76.2745098039%);}#my-svg .section-3 text{fill:black;}#my-svg .node-icon-3{font-size:40px;color:black;}#my-svg .section-edge-3{stroke:hsl(300, 100%, 76.2745098039%);}#my-svg .edge-depth-3{stroke-width:5;}#my-svg .section-3 line{stroke:hsl(120, 100%, 86.2745098039%);stroke-width:3;}#my-svg .disabled,#my-svg .disabled circle,#my-svg .disabled text{fill:lightgray;}#my-svg .disabled text{fill:#efefef;}#my-svg .section-4 rect,#my-svg .section-4 path,#my-svg .section-4 circle,#my-svg .section-4 polygon,#my-svg .section-4 path{fill:hsl(330, 100%, 76.2745098039%);}#my-svg .section-4 text{fill:black;}#my-svg .node-icon-4{font-size:40px;color:black;}#my-svg .section-edge-4{stroke:hsl(330, 100%, 76.2745098039%);}#my-svg .edge-depth-4{stroke-width:2;}#my-svg .section-4 line{stroke:hsl(150, 100%, 86.2745098039%);stroke-width:3;}#my-svg .disabled,#my-svg .disabled circle,#my-svg .disabled text{fill:lightgray;}#my-svg .disabled text{fill:#efefef;}#my-svg .section-5 rect,#my-svg .section-5 path,#my-svg .section-5 circle,#my-svg .section-5 polygon,#my-svg .section-5 path{fill:hsl(0, 100%, 76.2745098039%);}#my-svg .section-5 text{fill:black;}#my-svg .node-icon-5{font-size:40px;color:black;}#my-svg .section-edge-5{stroke:hsl(0, 100%, 76.2745098039%);}#my-svg .edge-depth-5{stroke-width:-1;}#my-svg .section-5 line{stroke:hsl(180, 100%, 86.2745098039%);stroke-width:3;}#my-svg .disabled,#my-svg .disabled circle,#my-svg .disabled text{fill:lightgray;}#my-svg .disabled text{fill:#efefef;}#my-svg .section-6 rect,#my-svg .section-6 path,#my-svg .section-6 circle,#my-svg .section-6 polygon,#my-svg .section-6 path{fill:hsl(30, 100%, 76.2745098039%);}#my-svg .section-6 text{fill:black;}#my-svg .node-icon-6{font-size:40px;color:black;}#my-svg .section-edge-6{stroke:hsl(30, 100%, 76.2745098039%);}#my-svg .edge-depth-6{stroke-width:-4;}#my-svg .section-6 line{stroke:hsl(210, 100%, 86.2745098039%);stroke-width:3;}#my-svg .disabled,#my-svg .disabled circle,#my-svg .disabled text{fill:lightgray;}#my-svg .disabled text{fill:#efefef;}#my-svg .section-7 rect,#my-svg .section-7 path,#my-svg .section-7 circle,#my-svg .section-7 polygon,#my-svg .section-7 path{fill:hsl(90, 100%, 76.2745098039%);}#my-svg .section-7 text{fill:black;}#my-svg .node-icon-7{font-size:40px;color:black;}#my-svg .section-edge-7{stroke:hsl(90, 100%, 76.2745098039%);}#my-svg .edge-depth-7{stroke-width:-7;}#my-svg .section-7 line{stroke:hsl(270, 100%, 86.2745098039%);stroke-width:3;}#my-svg .disabled,#my-svg .disabled circle,#my-svg .disabled text{fill:lightgray;}#my-svg .disabled text{fill:#efefef;}#my-svg .section-8 rect,#my-svg .section-8 path,#my-svg .section-8 circle,#my-svg .section-8 polygon,#my-svg .section-8 path{fill:hsl(150, 100%, 76.2745098039%);}#my-svg .section-8 text{fill:black;}#my-svg .node-icon-8{font-size:40px;color:black;}#my-svg .section-edge-8{stroke:hsl(150, 100%, 76.2745098039%);}#my-svg .edge-depth-8{stroke-width:-10;}#my-svg .section-8 line{stroke:hsl(330, 100%, 86.2745098039%);stroke-width:3;}#my-svg .disabled,#my-svg .disabled circle,#my-svg .disabled text{fill:lightgray;}#my-svg .disabled text{fill:#efefef;}#my-svg .section-9 rect,#my-svg .section-9 path,#my-svg .section-9 circle,#my-svg .section-9 polygon,#my-svg .section-9 path{fill:hsl(180, 100%, 76.2745098039%);}#my-svg .section-9 text{fill:black;}#my-svg .node-icon-9{font-size:40px;color:black;}#my-svg .section-edge-9{stroke:hsl(180, 100%, 76.2745098039%);}#my-svg .edge-depth-9{stroke-width:-13;}#my-svg .section-9 line{stroke:hsl(0, 100%, 86.2745098039%);stroke-width:3;}#my-svg .disabled,#my-svg .disabled circle,#my-svg .disabled text{fill:lightgray;}#my-svg .disabled text{fill:#efefef;}#my-svg .section-10 rect,#my-svg .section-10 path,#my-svg .section-10 circle,#my-svg .section-10 polygon,#my-svg .section-10 path{fill:hsl(210, 100%, 76.2745098039%);}#my-svg .section-10 text{fill:black;}#my-svg .node-icon-10{font-size:40px;color:black;}#my-svg .section-edge-10{stroke:hsl(210, 100%, 76.2745098039%);}#my-svg .edge-depth-10{stroke-width:-16;}#my-svg .section-10 line{stroke:hsl(30, 100%, 86.2745098039%);stroke-width:3;}#my-svg .disabled,#my-svg .disabled circle,#my-svg .disabled text{fill:lightgray;}#my-svg .disabled text{fill:#efefef;}#my-svg .section-root rect,#my-svg .section-root path,#my-svg .section-root circle,#my-svg .section-root polygon{fill:hsl(240, 100%, 46.2745098039%);}#my-svg .section-root text{fill:#ffffff;}#my-svg .icon-container{height:100%;display:flex;justify-content:center;align-items:center;}#my-svg .edge{fill:none;}#my-svg .mindmap-node-label{dy:1em;alignment-baseline:middle;text-anchor:middle;dominant-baseline:middle;text-align:center;}#my-svg :root{--mermaid-font-family:"trebuchet ms",verdana,arial,sans-serif;}</style><g/><g class="mindmap-edges"><path class="edge section-edge-0 edge-depth-1" d="M 330.1606466518216,202.46802942723346 L 369.19623582484815,191.17454563424653 L408.2318249978747,179.8810618412596"/><path class="edge section-edge-0 edge-depth-1" d="M 322.94719012235686,219.7981762862683 L 339.066992707463,249.2826748163478 L355.1867952925691,278.7671733464273"/><path class="edge section-edge-0 edge-depth-1" d="M 324.8050095183773,194.67702940486868 L 349.94725904127046,161.4637716451378 L375.0895085641636,128.25051388540697"/><path class="edge section-edge-0 edge-depth-0" d="M 416.1233650312713,232.50843797984595 L 373.2000812142011,221.44459879260913 L330.27679739713074,210.3807596053723"/><path class="edge section-edge-1 edge-depth-1" d="M 412.8345731472802,369.5503752061278 L 405.21013883945716,407.5251996621829 L397.5857045316341,445.500024118238"/><path class="edge section-edge-1 edge-depth-1" d="M 427.36215521478266,364.3844325230236 L 460.4573975888733,391.6631412944487 L493.5526399629639,418.9418500658738"/><path class="edge section-edge-1 edge-depth-1" d="M 402.31823727252953,361.4457327014386 L 351.1660772092511,386.51801550409607 L300.0139171459727,411.59029830675354"/><path class="edge section-edge-1 edge-depth-0" d="M 428.7834593768466,251.13603002040276 L 423.2179439754368,295.5481519688292 L417.6524285740269,339.96027391725556"/><path class="edge section-edge-2 edge-depth-1" d="M 505.5623859787064,121.07587319128683 L 478.8204482022338,91.45359167696877 L452.07851042576124,61.83131016265072"/><path class="edge section-edge-2 edge-depth-1" d="M 517.0992057257481,117.28369247107952 L 520.5054017062761,83.05498426803544 L523.911597686804,48.82627606499136"/><path class="edge section-edge-2 edge-depth-1" d="M 527.5825045085611,123.16832600895376 L 565.6793270131961,94.38832917326786 L603.7761495178312,65.60833233758197"/><path class="edge section-edge-2 edge-depth-0" d="M 440.13643300807144,224.63430665555808 L 473.131224758308,184.23120428723107 L506.1260165085447,143.82810191890405"/><path class="edge section-edge-3 edge-depth-1" d="M 543.6189045556342,324.0085144008883 L 576.137606235845,351.72579297624736 L608.6563079160559,379.4430715516064"/><path class="edge section-edge-3 edge-depth-1" d="M 547.0767592301578,316.2206497732517 L 624.1154359228789,326.2814570710548 L701.1541126156,336.34226436885785"/><path class="edge section-edge-3 edge-depth-0" d="M 442.54322323519176,245.39125485215317 L 481.4258286710924,275.26533502707235 L520.308434106993,305.13941520199154"/><path class="edge section-edge-4 edge-depth-1" d="M 607.2900746634817,204.93422386148453 L 667.5156275767187,215.93065133235532 L727.7411804899556,226.92707880322612"/><path class="edge section-edge-4 edge-depth-1" d="M 607.2967125458484,199.58229871082716 L 687.5076732160306,185.14229594780616 L767.7186338862128,170.70229318478516"/><path class="edge section-edge-4 edge-depth-1" d="M 602.0346204073169,190.63225376941307 L 625.3811598393512,162.10775227054404 L648.7276992713855,133.58325077167495"/><path class="edge section-edge-4 edge-depth-1" d="M 601.4287115997087,214.31822531649433 L 620.6838199868206,240.46512378097486 L639.9389283739325,266.6120222454554"/><path class="edge section-edge-4 edge-depth-0" d="M 445.32810055576863,233.16824466561178 L 511.59131387336316,219.2461977938116 L577.8545271909577,205.32415092201143"/><path class="edge section-edge-5 edge-depth-1" d="M 259.63403154871344,147.0011498555493 L 181.7520951757317,139.2620600588739 L103.87015880274996,131.52297026219853"/><path class="edge section-edge-5 edge-depth-1" d="M 262.4917834561653,139.57677056070483 L 224.89157258170206,111.82504008461765 L187.29136170723882,84.07330960853048"/><path class="edge section-edge-5 edge-depth-1" d="M 280.177706641092,134.57585794365062 L 294.93919203607777,98.02544466974425 L309.7006774310635,61.47503139583786"/><path class="edge section-edge-5 edge-depth-0" d="M 417.5738397777506,228.9005255114763 L 352.6045590985774,192.36841377745003 L287.6352784194042,155.8363020434238"/><path class="edge section-edge-6 edge-depth-1" d="M 234.34265966960314,263.89169537172006 L 163.6169598542616,261.17131267717616 L92.89126003892008,258.45092998263226"/><path class="edge section-edge-6 edge-depth-1" d="M 236.54431466650973,256.6269291583574 L 196.00743918742774,231.76924472596832 L155.47056370834574,206.9115602935792"/><path class="edge section-edge-6 edge-depth-1" d="M 252.5571083387969,279.1173203132844 L 258.8052785796806,307.4940406114061 L265.05344882056426,335.8707609095278"/><path class="edge section-edge-6 edge-depth-1" d="M 235.5011861189216,270.27514653802564 L 173.16304122262562,296.44885591623347 L110.82489632632965,322.6225652944413"/><path class="edge section-edge-6 edge-depth-0" d="M 415.8269884421069,238.55891639536003 L 339.9900879394831,250.3603334174403 L264.1531874368593,262.1617504395206"/></g><g class="mindmap-nodes"><g transform="translate(392.50016242044296, 217.35244003839125)" class="mindmap-node section--1 section-root"><g transform="translate(38.1484375, 18.9)"><circle r="38.1484375" class="node-bkg node-circle" id="node-0"/></g><g transform="translate(38.1484375, 5)" text-anchor="middle" dominant-baseline="middle" alignment-baseline="middle" dy="1em"><g><rect style="stroke: none" class="background"/><text style="" y="-10.1"><tspan dy="1.1em" y="-0.1em" x="0" class="text-outer-tspan"><tspan font-weight="normal" class="text-inner-tspan" font-style="normal">Promise</tspan></tspan></text></g></g></g><g transform="translate(283.4937500079591, 187.736757546827)" class="mindmap-node section-0"><g><path d="M0 32.8 v-27.799999999999997 q0,-5 5,-5 h54.515625 q5,0 5,5 v32.8 H0 Z" class="node-bkg node-no-border" id="node-1"/><line y2="37.8" x2="64.515625" y1="37.8" x1="0" class="node-line-0"/></g><g transform="translate(32.2578125, 5)" text-anchor="middle" dominant-baseline="middle" alignment-baseline="middle" dy="1em"><g><rect style="stroke: none" class="background"/><text style="" y="-10.1"><tspan dy="1.1em" y="-0.1em" x="0" class="text-outer-tspan"><tspan font-weight="normal" class="text-inner-tspan" font-style="normal">States</tspan></tspan></text></g></g></g><g transform="translate(375.08025678043055, 335.94386389926706)" class="mindmap-node section-1"><g><path d="M0 32.8 v-27.799999999999997 q0,-5 5,-5 h71.4140625 q5,0 5,5 v32.8 H0 Z" class="node-bkg node-no-border" id="node-5"/><line y2="37.8" x2="81.4140625" y1="37.8" x1="0" class="node-line-1"/></g><g transform="translate(40.70703125, 5)" text-anchor="middle" dominant-baseline="middle" alignment-baseline="middle" dy="1em"><g><rect style="stroke: none" class="background"/><text style="" y="-10.1"><tspan dy="1.1em" y="-0.1em" x="0" class="text-outer-tspan"><tspan font-weight="normal" class="text-inner-tspan" font-style="normal">Creation</tspan></tspan></text></g></g></g><g transform="translate(459.21150584617317, 113.30996853607087)" class="mindmap-node section-2"><g><path d="M0 32.8 v-27.799999999999997 q0,-5 5,-5 h102.8046875 q5,0 5,5 v32.8 H0 Z" class="node-bkg node-no-border" id="node-9"/><line y2="37.8" x2="112.8046875" y1="37.8" x1="0" class="node-line-2"/></g><g transform="translate(56.40234375, 5)" text-anchor="middle" dominant-baseline="middle" alignment-baseline="middle" dy="1em"><g><rect style="stroke: none" class="background"/><text style="" y="-10.1"><tspan dy="1.1em" y="-0.1em" x="0" class="text-outer-tspan"><tspan font-weight="normal" class="text-inner-tspan" font-style="normal">Consumption</tspan></tspan></text></g></g></g><g transform="translate(491.52336992174173, 295.3782300157535)" class="mindmap-node section-3"><g><path d="M0 32.8 v-27.799999999999997 q0,-5 5,-5 h71.359375 q5,0 5,5 v32.8 H0 Z" class="node-bkg node-no-border" id="node-13"/><line y2="37.8" x2="81.359375" y1="37.8" x1="0" class="node-line-3"/></g><g transform="translate(40.6796875, 5)" text-anchor="middle" dominant-baseline="middle" alignment-baseline="middle" dy="1em"><g><rect style="stroke: none" class="background"/><text style="" y="-10.1"><tspan dy="1.1em" y="-0.1em" x="0" class="text-outer-tspan"><tspan font-weight="normal" class="text-inner-tspan" font-style="normal">Chaining</tspan></tspan></text></g></g></g><g transform="translate(553.9363715762834, 183.33995554923195)" class="mindmap-node section-4"><g><path d="M0 32.8 v-27.799999999999997 q0,-5 5,-5 h67.1953125 q5,0 5,5 v32.8 H0 Z" class="node-bkg node-no-border" id="node-16"/><line y2="37.8" x2="77.1953125" y1="37.8" x1="0" class="node-line-4"/></g><g transform="translate(38.59765625, 5)" text-anchor="middle" dominant-baseline="middle" alignment-baseline="middle" dy="1em"><g><rect style="stroke: none" class="background"/><text style="" y="-10.1"><tspan dy="1.1em" y="-0.1em" x="0" class="text-outer-tspan"><tspan font-weight="normal" class="text-inner-tspan" font-style="normal">Utilities</tspan></tspan></text></g></g></g><g transform="translate(226.59176827671183, 129.58438751650885)" class="mindmap-node section-5"><g><path d="M0 32.8 v-27.799999999999997 q0,-5 5,-5 h85.9375 q5,0 5,5 v32.8 H0 Z" class="node-bkg node-no-border" id="node-21"/><line y2="37.8" x2="95.9375" y1="37.8" x1="0" class="node-line-5"/></g><g transform="translate(47.96875, 5)" text-anchor="middle" dominant-baseline="middle" alignment-baseline="middle" dy="1em"><g><rect style="stroke: none" class="background"/><text style="" y="-10.1"><tspan dy="1.1em" y="-0.1em" x="0" class="text-outer-tspan"><tspan font-weight="normal" class="text-inner-tspan" font-style="normal">Microtasks</tspan></tspan></text></g></g></g><g transform="translate(204.04251345852322, 245.56822679648937)" class="mindmap-node section-6"><g><path d="M0 32.8 v-27.799999999999997 q0,-5 5,-5 h80.578125 q5,0 5,5 v32.8 H0 Z" class="node-bkg node-no-border" id="node-25"/><line y2="37.8" x2="90.578125" y1="37.8" x1="0" class="node-line-6"/></g><g transform="translate(45.2890625, 5)" text-anchor="middle" dominant-baseline="middle" alignment-baseline="middle" dy="1em"><g><rect style="stroke: none" class="background"/><text style="" y="-10.1"><tspan dy="1.1em" y="-0.1em" x="0" class="text-outer-tspan"><tspan font-weight="normal" class="text-inner-tspan" font-style="normal">Use</tspan><tspan font-weight="normal" class="text-inner-tspan" font-style="normal"> Cases</tspan></tspan></text></g></g></g><g transform="translate(384.6955966417372, 156.81233372166605)" class="mindmap-node section-0"><g><path d="M0 32.8 v-27.799999999999997 q0,-5 5,-5 h65.890625 q5,0 5,5 v32.8 H0 Z" class="node-bkg node-no-border" id="node-2"/><line y2="37.8" x2="75.890625" y1="37.8" x1="0" class="node-line-0"/></g><g transform="translate(37.9453125, 5)" text-anchor="middle" dominant-baseline="middle" alignment-baseline="middle" dy="1em"><g><rect style="stroke: none" class="background"/><text style="" y="-10.1"><tspan dy="1.1em" y="-0.1em" x="0" class="text-outer-tspan"><tspan font-weight="normal" class="text-inner-tspan" font-style="normal">Pending</tspan></tspan></text></g></g></g><g transform="translate(322.6324229069669, 273.0285920858686)" class="mindmap-node section-0"><g><path d="M0 32.8 v-27.799999999999997 q0,-5 5,-5 h69.5 q5,0 5,5 v32.8 H0 Z" class="node-bkg node-no-border" id="node-3"/><line y2="37.8" x2="79.5" y1="37.8" x1="0" class="node-line-0"/></g><g transform="translate(39.75, 5)" text-anchor="middle" dominant-baseline="middle" alignment-baseline="middle" dy="1em"><g><rect style="stroke: none" class="background"/><text style="" y="-10.1"><tspan dy="1.1em" y="-0.1em" x="0" class="text-outer-tspan"><tspan font-weight="normal" class="text-inner-tspan" font-style="normal">Fulfilled</tspan></tspan></text></g></g></g><g transform="translate(342.15467432458183, 97.39078574344865)" class="mindmap-node section-0"><g><path d="M0 32.8 v-27.799999999999997 q0,-5 5,-5 h73.9765625 q5,0 5,5 v32.8 H0 Z" class="node-bkg node-no-border" id="node-4"/><line y2="37.8" x2="83.9765625" y1="37.8" x1="0" class="node-line-0"/></g><g transform="translate(41.98828125, 5)" text-anchor="middle" dominant-baseline="middle" alignment-baseline="middle" dy="1em"><g><rect style="stroke: none" class="background"/><text style="" y="-10.1"><tspan dy="1.1em" y="-0.1em" x="0" class="text-outer-tspan"><tspan font-weight="normal" class="text-inner-tspan" font-style="normal">Rejected</tspan></tspan></text></g></g></g><g transform="translate(342.6017396484838, 436.3065354250988)" class="mindmap-node section-1"><g><rect width="104.0625" ry="20" rx="20" height="47.8" class="node-bkg node-rounded-rect" id="node-6"/></g><g transform="translate(52.03125, 10)" text-anchor="middle" dominant-baseline="middle" alignment-baseline="middle" dy="1em"><g><rect style="stroke: none" class="background"/><text style="" y="-10.1"><tspan dy="1.1em" y="-0.1em" x="0" class="text-outer-tspan"><tspan font-weight="normal" class="text-inner-tspan" font-style="normal">executor</tspan></tspan></text></g></g></g><g transform="translate(469.346257147316, 409.58241868963034)" class="mindmap-node section-1"><g><path d="M0 32.8 v-27.799999999999997 q0,-5 5,-5 h61.5625 q5,0 5,5 v32.8 H0 Z" class="node-bkg node-no-border" id="node-7"/><line y2="37.8" x2="71.5625" y1="37.8" x1="0" class="node-line-1"/></g><g transform="translate(35.78125, 5)" text-anchor="middle" dominant-baseline="middle" alignment-baseline="middle" dy="1em"><g><rect style="stroke: none" class="background"/><text style="" y="-10.1"><tspan dy="1.1em" y="-0.1em" x="0" class="text-outer-tspan"><tspan font-weight="normal" class="text-inner-tspan" font-style="normal">resolve</tspan></tspan></text></g></g></g><g transform="translate(254.31439763807168, 399.2921671089251)" class="mindmap-node section-1"><g><path d="M0 32.8 v-27.799999999999997 q0,-5 5,-5 h54.4609375 q5,0 5,5 v32.8 H0 Z" class="node-bkg node-no-border" id="node-8"/><line y2="37.8" x2="64.4609375" y1="37.8" x1="0" class="node-line-1"/></g><g transform="translate(32.23046875, 5)" text-anchor="middle" dominant-baseline="middle" alignment-baseline="middle" dy="1em"><g><rect style="stroke: none" class="background"/><text style="" y="-10.1"><tspan dy="1.1em" y="-0.1em" x="0" class="text-outer-tspan"><tspan font-weight="normal" class="text-inner-tspan" font-style="normal">reject</tspan></tspan></text></g></g></g><g transform="translate(415.6207968082945, 31.79721481786669)" class="mindmap-node section-2"><g><path d="M0 32.8 v-27.799999999999997 q0,-5 5,-5 h42.8125 q5,0 5,5 v32.8 H0 Z" class="node-bkg node-no-border" id="node-10"/><line y2="37.8" x2="52.8125" y1="37.8" x1="0" class="node-line-2"/></g><g transform="translate(26.40625, 5)" text-anchor="middle" dominant-baseline="middle" alignment-baseline="middle" dy="1em"><g><rect style="stroke: none" class="background"/><text style="" y="-10.1"><tspan dy="1.1em" y="-0.1em" x="0" class="text-outer-tspan"><tspan font-weight="normal" class="text-inner-tspan" font-style="normal">then</tspan></tspan></text></g></g></g><g transform="translate(495.600078816379, 15)" class="mindmap-node section-2"><g><path d="M0 32.8 v-27.799999999999997 q0,-5 5,-5 h49.59375 q5,0 5,5 v32.8 H0 Z" class="node-bkg node-no-border" id="node-11"/><line y2="37.8" x2="59.59375" y1="37.8" x1="0" class="node-line-2"/></g><g transform="translate(29.796875, 5)" text-anchor="middle" dominant-baseline="middle" alignment-baseline="middle" dy="1em"><g><rect style="stroke: none" class="background"/><text style="" y="-10.1"><tspan dy="1.1em" y="-0.1em" x="0" class="text-outer-tspan"><tspan font-weight="normal" class="text-inner-tspan" font-style="normal">catch</tspan></tspan></text></g></g></g><g transform="translate(582.7135544302191, 37.666689810464845)" class="mindmap-node section-2"><g><path d="M0 32.8 v-27.799999999999997 q0,-5 5,-5 h56.0625 q5,0 5,5 v32.8 H0 Z" class="node-bkg node-no-border" id="node-12"/><line y2="37.8" x2="66.0625" y1="37.8" x1="0" class="node-line-2"/></g><g transform="translate(33.03125, 5)" text-anchor="middle" dominant-baseline="middle" alignment-baseline="middle" dy="1em"><g><rect style="stroke: none" class="background"/><text style="" y="-10.1"><tspan dy="1.1em" y="-0.1em" x="0" class="text-outer-tspan"><tspan font-weight="normal" class="text-inner-tspan" font-style="normal">finally</tspan></tspan></text></g></g></g><g transform="translate(561.7166862999484, 370.27335593674127)" class="mindmap-node section-3"><g><path d="M0 32.8 v-27.799999999999997 q0,-5 5,-5 h106.7109375 q5,0 5,5 v32.8 H0 Z" class="node-bkg node-no-border" id="node-14"/><line y2="37.8" x2="116.7109375" y1="37.8" x1="0" class="node-line-3"/></g><g transform="translate(58.35546875, 5)" text-anchor="middle" dominant-baseline="middle" alignment-baseline="middle" dy="1em"><g><rect style="stroke: none" class="background"/><text style="" y="-10.1"><tspan dy="1.1em" y="-0.1em" x="0" class="text-outer-tspan"><tspan font-weight="normal" class="text-inner-tspan" font-style="normal">Multiple</tspan><tspan font-weight="normal" class="text-inner-tspan" font-style="normal"> then</tspan></tspan></text></g></g></g><g transform="translate(642.727033174016, 319.3846841263561)" class="mindmap-node section-3"><g><path d="M0 32.8 v-27.799999999999997 q0,-5 5,-5 h136.6015625 q5,0 5,5 v32.8 H0 Z" class="node-bkg node-no-border" id="node-15"/><line y2="37.8" x2="146.6015625" y1="37.8" x1="0" class="node-line-3"/></g><g transform="translate(73.30078125, 5)" text-anchor="middle" dominant-baseline="middle" alignment-baseline="middle" dy="1em"><g><rect style="stroke: none" class="background"/><text style="" y="-10.1"><tspan dy="1.1em" y="-0.1em" x="0" class="text-outer-tspan"><tspan font-weight="normal" class="text-inner-tspan" font-style="normal">Error</tspan><tspan font-weight="normal" class="text-inner-tspan" font-style="normal"> propagation</tspan></tspan></text></g></g></g><g transform="translate(692.485508577154, 210.7213471154787)" class="mindmap-node section-4"><g><path d="M0 32.8 v-27.799999999999997 q0,-5 5,-5 h90.0234375 q5,0 5,5 v32.8 H0 Z" class="node-bkg node-no-border" id="node-17"/><line y2="37.8" x2="100.0234375" y1="37.8" x1="0" class="node-line-4"/></g><g transform="translate(50.01171875, 5)" text-anchor="middle" dominant-baseline="middle" alignment-baseline="middle" dy="1em"><g><rect style="stroke: none" class="background"/><text style="" y="-10.1"><tspan dy="1.1em" y="-0.1em" x="0" class="text-outer-tspan"><tspan font-weight="normal" class="text-inner-tspan" font-style="normal">Promise.all</tspan></tspan></text></g></g></g><g transform="translate(706.8328811057779, 149.14463634638037)" class="mindmap-node section-4"><g><path d="M0 32.8 v-27.799999999999997 q0,-5 5,-5 h141.296875 q5,0 5,5 v32.8 H0 Z" class="node-bkg node-no-border" id="node-18"/><line y2="37.8" x2="151.296875" y1="37.8" x1="0" class="node-line-4"/></g><g transform="translate(75.6484375, 5)" text-anchor="middle" dominant-baseline="middle" alignment-baseline="middle" dy="1em"><g><rect style="stroke: none" class="background"/><text style="" y="-10.1"><tspan dy="1.1em" y="-0.1em" x="0" class="text-outer-tspan"><tspan font-weight="normal" class="text-inner-tspan" font-style="normal">Promise.allSettled</tspan></tspan></text></g></g></g><g transform="translate(601.505635602419, 103.07554899185607)" class="mindmap-node section-4"><g><path d="M0 32.8 v-27.799999999999997 q0,-5 5,-5 h103.4453125 q5,0 5,5 v32.8 H0 Z" class="node-bkg node-no-border" id="node-19"/><line y2="37.8" x2="113.4453125" y1="37.8" x1="0" class="node-line-4"/></g><g transform="translate(56.72265625, 5)" text-anchor="middle" dominant-baseline="middle" alignment-baseline="middle" dy="1em"><g><rect style="stroke: none" class="background"/><text style="" y="-10.1"><tspan dy="1.1em" y="-0.1em" x="0" class="text-outer-tspan"><tspan font-weight="normal" class="text-inner-tspan" font-style="normal">Promise.race</tspan></tspan></text></g></g></g><g transform="translate(594.8101746473578, 259.7902920127178)" class="mindmap-node section-4"><g><path d="M0 32.8 v-27.799999999999997 q0,-5 5,-5 h98.046875 q5,0 5,5 v32.8 H0 Z" class="node-bkg node-no-border" id="node-20"/><line y2="37.8" x2="108.046875" y1="37.8" x1="0" class="node-line-4"/></g><g transform="translate(54.0234375, 5)" text-anchor="middle" dominant-baseline="middle" alignment-baseline="middle" dy="1em"><g><rect style="stroke: none" class="background"/><text style="" y="-10.1"><tspan dy="1.1em" y="-0.1em" x="0" class="text-outer-tspan"><tspan font-weight="normal" class="text-inner-tspan" font-style="normal">Promise.any</tspan></tspan></text></g></g></g><g transform="translate(15.47882832475159, 111.13973260123896)" class="mindmap-node section-5"><g><path d="M0 32.8 v-27.799999999999997 q0,-5 5,-5 h136.9296875 q5,0 5,5 v32.8 H0 Z" class="node-bkg node-no-border" id="node-22"/><line y2="37.8" x2="146.9296875" y1="37.8" x1="0" class="node-line-5"/></g><g transform="translate(73.46484375, 5)" text-anchor="middle" dominant-baseline="middle" alignment-baseline="middle" dy="1em"><g><rect style="stroke: none" class="background"/><text style="" y="-10.1"><tspan dy="1.1em" y="-0.1em" x="0" class="text-outer-tspan"><tspan font-weight="normal" class="text-inner-tspan" font-style="normal">Promise</tspan><tspan font-weight="normal" class="text-inner-tspan" font-style="normal"> callbacks</tspan></tspan></text></g></g></g><g transform="translate(108.8632518866923, 56.26569265272645)" class="mindmap-node section-5"><g><path d="M0 32.8 v-27.799999999999997 q0,-5 5,-5 h122.71875 q5,0 5,5 v32.8 H0 Z" class="node-bkg node-no-border" id="node-23"/><line y2="37.8" x2="132.71875" y1="37.8" x1="0" class="node-line-5"/></g><g transform="translate(66.359375, 5)" text-anchor="middle" dominant-baseline="middle" alignment-baseline="middle" dy="1em"><g><rect style="stroke: none" class="background"/><text style="" y="-10.1"><tspan dy="1.1em" y="-0.1em" x="0" class="text-outer-tspan"><tspan font-weight="normal" class="text-inner-tspan" font-style="normal">queueMicrotask</tspan></tspan></text></g></g></g><g transform="translate(267.7280220454437, 23.666501822979626)" class="mindmap-node section-5"><g><rect width="95.1796875" ry="20" rx="20" height="47.8" class="node-bkg node-rounded-rect" id="node-24"/></g><g transform="translate(47.58984375, 10)" text-anchor="middle" dominant-baseline="middle" alignment-baseline="middle" dy="1em"><g><rect style="stroke: none" class="background"/><text style="" y="-10.1"><tspan dy="1.1em" y="-0.1em" x="0" class="text-outer-tspan"><tspan font-weight="normal" class="text-inner-tspan" font-style="normal">Node.js</tspan></tspan></text></g></g></g><g transform="translate(15, 238.97439855786294)" class="mindmap-node section-6"><g><path d="M0 32.8 v-27.799999999999997 q0,-5 5,-5 h115.8046875 q5,0 5,5 v32.8 H0 Z" class="node-bkg node-no-border" id="node-26"/><line y2="37.8" x2="125.8046875" y1="37.8" x1="0" class="node-line-6"/></g><g transform="translate(62.90234375, 5)" text-anchor="middle" dominant-baseline="middle" alignment-baseline="middle" dy="1em"><g><rect style="stroke: none" class="background"/><text style="" y="-10.1"><tspan dy="1.1em" y="-0.1em" x="0" class="text-outer-tspan"><tspan font-weight="normal" class="text-inner-tspan" font-style="normal">Async</tspan><tspan font-weight="normal" class="text-inner-tspan" font-style="normal"> API</tspan><tspan font-weight="normal" class="text-inner-tspan" font-style="normal"> calls</tspan></tspan></text></g></g></g><g transform="translate(52.01923991633225, 180.17026265544723)" class="mindmap-node section-6"><g><path d="M0 32.8 v-27.799999999999997 q0,-5 5,-5 h171.328125 q5,0 5,5 v32.8 H0 Z" class="node-bkg node-no-border" id="node-27"/><line y2="37.8" x2="181.328125" y1="37.8" x1="0" class="node-line-6"/></g><g transform="translate(90.6640625, 5)" text-anchor="middle" dominant-baseline="middle" alignment-baseline="middle" dy="1em"><g><rect style="stroke: none" class="background"/><text style="" y="-10.1"><tspan dy="1.1em" y="-0.1em" x="0" class="text-outer-tspan"><tspan font-weight="normal" class="text-inner-tspan" font-style="normal">File</tspan><tspan font-weight="normal" class="text-inner-tspan" font-style="normal"> system</tspan><tspan font-weight="normal" class="text-inner-tspan" font-style="normal"> operations</tspan></tspan></text></g></g></g><g transform="translate(196.67351245083796, 331.61985442632283)" class="mindmap-node section-6"><g><path d="M0 32.8 v-27.799999999999997 q0,-5 5,-5 h133.2109375 q5,0 5,5 v32.8 H0 Z" class="node-bkg node-no-border" id="node-28"/><line y2="37.8" x2="143.2109375" y1="37.8" x1="0" class="node-line-6"/></g><g transform="translate(71.60546875, 5)" text-anchor="middle" dominant-baseline="middle" alignment-baseline="middle" dy="1em"><g><rect style="stroke: none" class="background"/><text style="" y="-10.1"><tspan dy="1.1em" y="-0.1em" x="0" class="text-outer-tspan"><tspan font-weight="normal" class="text-inner-tspan" font-style="normal">Database</tspan><tspan font-weight="normal" class="text-inner-tspan" font-style="normal"> queries</tspan></tspan></text></g></g></g><g transform="translate(21.865600236728028, 309.5294850359776)" class="mindmap-node section-6"><g><path d="M0 32.8 v-27.799999999999997 q0,-5 5,-5 h140.2578125 q5,0 5,5 v32.8 H0 Z" class="node-bkg node-no-border" id="node-29"/><line y2="37.8" x2="150.2578125" y1="37.8" x1="0" class="node-line-6"/></g><g transform="translate(75.12890625, 5)" text-anchor="middle" dominant-baseline="middle" alignment-baseline="middle" dy="1em"><g><rect style="stroke: none" class="background"/><text style="" y="-10.1"><tspan dy="1.1em" y="-0.1em" x="0" class="text-outer-tspan"><tspan font-weight="normal" class="text-inner-tspan" font-style="normal">Timers</tspan><tspan font-weight="normal" class="text-inner-tspan" font-style="normal"> and</tspan><tspan font-weight="normal" class="text-inner-tspan" font-style="normal"> delays</tspan></tspan></text></g></g></g></g></svg>